<?xml version="1.0" encoding="utf-8"?><svg viewBox="0 0 80 80" xmlns="http://www.w3.org/2000/svg" xmlns:xlink="http://www.w3.org/1999/xlink"><style>:root>svg{display:none}:root>svg:target{display:block}</style><svg fill="none" viewBox="0 0 6 12" id="arrow-left" xmlns="http://www.w3.org/2000/svg"><path d="M.127 6.33l5.138 5.534c.169.181.441.181.61 0a.492.492 0 00-.002-.659L1.041 6 5.873.794a.492.492 0 00.001-.657A.414.414 0 005.57 0c-.11 0-.22.045-.304.136L.127 5.67A.484.484 0 000 6c0 .124.046.242.127.33z" fill="#000"/></svg><svg fill="none" viewBox="0 0 12 23" id="arrow-next-article" xmlns="http://www.w3.org/2000/svg"><path opacity=".7" fill-rule="evenodd" clip-rule="evenodd" d="M11.747 10.869L1.47.26A.841.841 0 00.252.262a.914.914 0 00.001 1.26L9.92 11.5.253 21.477a.914.914 0 00-.002 1.26.845.845 0 001.219.003L11.747 12.13A.906.906 0 0012 11.5a.909.909 0 00-.253-.631z" fill="#363838"/></svg><svg fill="none" viewBox="0 0 12 23" id="arrow-prev-article" xmlns="http://www.w3.org/2000/svg"><path opacity=".7" fill-rule="evenodd" clip-rule="evenodd" d="M.253 10.869L10.53.26a.841.841 0 011.218.002.914.914 0 01-.001 1.26L2.08 11.5l9.666 9.977a.914.914 0 01.002 1.26.845.845 0 01-1.219.003L.253 12.13A.906.906 0 010 11.5c0-.237.091-.464.253-.631z" fill="#363838"/></svg><svg fill="none" viewBox="0 0 6 12" id="arrow-right" xmlns="http://www.w3.org/2000/svg"><path d="M5.873 5.67L.735.137a.409.409 0 00-.61 0 .492.492 0 00.002.658L4.959 6 .127 11.206a.492.492 0 00-.001.657A.414.414 0 00.43 12c.11 0 .22-.045.304-.136L5.873 6.33A.484.484 0 006 6a.485.485 0 00-.127-.33z" fill="#000"/></svg><svg fill="none" viewBox="0 0 10 17" id="arrow-slide-left" xmlns="http://www.w3.org/2000/svg"><path d="M.47 7.292c.086-.086.177-.159.274-.222L7.212.482a1.596 1.596 0 012.286 0 1.668 1.668 0 010 2.329l-5.57 5.674 5.599 5.704a1.668 1.668 0 010 2.329 1.596 1.596 0 01-2.286 0L.744 9.898a1.612 1.612 0 01-.273-.22A1.653 1.653 0 010 8.484c-.009-.431.147-.864.47-1.193z" fill="#000"/></svg><svg fill="none" viewBox="0 0 10 17" id="arrow-slide-right" xmlns="http://www.w3.org/2000/svg"><path d="M9.529 7.292a1.61 1.61 0 00-.273-.221L2.788.48A1.596 1.596 0 00.502.483a1.668 1.668 0 000 2.329l5.57 5.674L.474 14.19a1.668 1.668 0 000 2.328 1.597 1.597 0 002.285 0L9.256 9.9c.096-.063.189-.136.273-.222.323-.33.478-.762.47-1.193a1.652 1.652 0 00-.47-1.193z" fill="#000"/></svg><svg fill="none" viewBox="0 0 26 26" id="close" xmlns="http://www.w3.org/2000/svg"><path fill-rule="evenodd" clip-rule="evenodd" d="M14.436 13L25.703 1.734A1.016 1.016 0 1024.265.297L13 11.564 1.734.297A1.016 1.016 0 10.297 1.734L11.564 13 .297 24.266a1.016 1.016 0 001.437 1.437L13 14.436l11.266 11.267a1.013 1.013 0 001.437 0 1.016 1.016 0 000-1.437L14.436 13z" fill="#363838"/></svg><svg fill="none" viewBox="0 0 16 12" id="email" xmlns="http://www.w3.org/2000/svg"><path d="M14.5 0h-13A1.5 1.5 0 000 1.5v9c0 .844.656 1.5 1.5 1.5h13a1.5 1.5 0 001.5-1.5v-9c0-.813-.688-1.5-1.5-1.5zm0 1.5v1.281c-.719.594-1.844 1.469-4.219 3.344C9.75 6.531 8.72 7.531 8 7.5c-.75.031-1.781-.969-2.313-1.375-2.375-1.875-3.5-2.75-4.187-3.344V1.5h13zm-13 9V4.719c.688.562 1.719 1.375 3.25 2.593C5.438 7.845 6.656 9.033 8 9c1.313.031 2.5-1.156 3.219-1.688A510.233 510.233 0 0114.5 4.72V10.5h-13z" fill="#363838"/></svg><svg fill="none" viewBox="0 0 16 16" id="facebook" xmlns="http://www.w3.org/2000/svg"><path d="M15.75 8A7.749 7.749 0 008 .25 7.749 7.749 0 00.25 8c0 3.875 2.813 7.094 6.531 7.656V10.25H4.813V8H6.78V6.312c0-1.937 1.157-3.03 2.907-3.03.874 0 1.75.155 1.75.155v1.907h-.97c-.968 0-1.28.593-1.28 1.218V8h2.156L11 10.25H9.187v5.406A7.74 7.74 0 0015.75 8z" fill="#707070"/></svg><svg fill="none" viewBox="0 0 41 42" id="graphic-tool-1" xmlns="http://www.w3.org/2000/svg"><path fill-rule="evenodd" clip-rule="evenodd" d="M38.543 35.013l-31.185-.012c-.614-.008-.945.038-1.762.404l-5.048 2.26a.908.908 0 00-.548.84.92.92 0 00.546.84c1.655.743 5.05 2.263 5.05 2.263.764.342 1.096.38 1.639.38l12.22.012a.602.602 0 000-1.205H7.978V39.11h26.538v1.686H22.438a.602.602 0 000 1.205h16.105A2.462 2.462 0 0041 39.54v-2.066a2.462 2.462 0 00-2.457-2.46zM3.485 37.67v1.672l-.578-.259-1.289-.577 1.867-.836zm1.201-.538v2.749c.439.196 1.91.843 2.09.885v-4.518c-.18.041-2.09.884-2.09.884zm3.29.772v-1.686h26.539v1.686H7.977zm30.567 2.89c.692 0 1.256-.562 1.256-1.255v-2.065c0-.692-.564-1.255-1.256-1.255h-2.827v4.576h2.827zM1.063 32l18.878-.002a.615.615 0 00.619-.611.615.615 0 00-.619-.611l-18.704.002V5.848h2.472V26.27c0 .554.457 1.005 1.018 1.005h25.64c.423 0 .791-.226.938-.576.146-.348.05-.738-.26-1.042L10.954 5.848h22.742v19.371c0 .571.47 1.035 1.048 1.035h2.726c1.265 0 2.294 1.015 2.294 2.261 0 1.247-1.029 2.26-2.294 2.26H22.78a.615.615 0 00-.618.612c0 .337.276.61.618.61h14.689c1.947 0 3.531-1.562 3.531-3.482V5.611c0-1.922-1.584-3.485-3.531-3.485h-2.726c-.578 0-1.048.463-1.048 1.033v1.467H9.714L5.347.32c-.31-.305-.705-.399-1.06-.252-.354.147-.581.511-.578.924v3.634H1.062C.478 4.626 0 5.097 0 5.676V30.95C0 31.529.477 32 1.063 32zM34.93 3.348h2.538c1.265 0 2.294 1.015 2.294 2.263V25.87a3.545 3.545 0 00-2.294-.838H34.93V3.348zm-5.234 22.707L4.945 1.65v24.405h2.653v-.858c0-.338.277-.611.618-.611.342 0 .618.273.618.61v.858h2.655V24.39c0-.337.277-.61.618-.61.342 0 .619.273.619.61v1.666h2.652v-.858c0-.338.277-.611.618-.611.342 0 .619.273.619.61v.858h2.655V24.39c0-.337.277-.61.618-.61.341 0 .618.273.618.61v1.666h2.653v-.858c0-.338.277-.611.618-.611.342 0 .618.273.618.61v.858h5.302z" fill="#000"/><path fill-rule="evenodd" clip-rule="evenodd" d="M16.688 22h-6.2c-.44 0-.726-.293-.726-.746v-6.348c0-.24 0-.686.403-.856.396-.168.682.126.89.341l6.137 6.283c.209.214.494.507.33.913-.166.413-.6.413-.834.413zm-.907-1.148l-4.9-5.017v5.017h4.9z" fill="#000"/></svg><svg fill="none" viewBox="0 0 38 34" id="graphic-tool-2" xmlns="http://www.w3.org/2000/svg"><path fill-rule="evenodd" clip-rule="evenodd" d="M35.742 9.63h.588c.92 0 1.67.838 1.67 1.867V23.04c0 1.715-1.248 3.11-2.783 3.11h-1.734v6.102c0 .964-.701 1.748-1.564 1.748-.816 0-1.502-.713-1.56-1.624l-.395-6.225H13.805c-.307 0-.556-.28-.556-.623 0-.343.249-.622.556-.622h21.412c.92 0 1.67-.837 1.67-1.867V11.497c0-.343-.25-.622-.557-.622h-2.29c-.269 0-.493.213-.545.497a.686.686 0 00-.012.125v2.98h.897c.748 0 1.356.68 1.356 1.516v3.592c0 .837-.608 1.517-1.356 1.517H3.62c-.748 0-1.356-.68-1.356-1.517v-3.592c0-.836.608-1.517 1.356-1.517h.897v-2.98a.694.694 0 00-.012-.124c-.052-.284-.276-.497-.545-.497H1.67c-.307 0-.557.279-.557.622v11.542c0 1.03.75 1.867 1.67 1.867h8.425c.307 0 .556.279.556.622 0 .344-.249.623-.556.623H8.036l-.396 6.225C7.582 33.286 6.897 34 6.08 34c-.862 0-1.563-.784-1.563-1.748v-6.101H2.783C1.25 26.15 0 24.755 0 23.04V11.497c0-1.03.75-1.867 1.67-1.867h.588V2.862C2.258 1.284 3.408 0 4.82 0h12.177c.811 0 1.535.424 2.004 1.084C19.47.424 20.193 0 21.004 0H33.18c1.25 0 2.311.998 2.523 2.373.053.339-.15.66-.454.72-.303.057-.59-.17-.643-.508-.12-.777-.72-1.34-1.426-1.34H21.004c-.798 0-1.447.725-1.447 1.617v11.639l.01-.002.015-.004c.095-.022.195-.022 5.143-.02h.004l7.64.001v-2.98c0-1.028.75-1.866 1.67-1.866h.59V5.38c0-.343.248-.622.556-.622.307 0 .557.279.557.623v4.25zM6.675 32.286l.335-6.164H5.903v6.128c0 .28.173.506.386.506.202 0 .372-.206.386-.47zM34.68 19.63c0 .15-.11.272-.245.272H19.553V16.03c0-.15.11-.273.245-.273h14.637c.135 0 .245.122.245.273v3.6zM3.32 9.637h.591c.924 0 1.676.838 1.676 1.869v2.982l7.69-.002h.004c4.975-.001 5.06-.001 5.139.02l.027.006V2.863c0-.893-.652-1.62-1.453-1.62H4.773c-.801 0-1.453.727-1.453 1.62v6.774zm0 9.993v-3.601c0-.15.11-.273.245-.273h14.637c.135 0 .245.122.245.273v3.873H3.565c-.135 0-.245-.122-.245-.272zm28.39 13.126c.214 0 .387-.227.387-.506v-6.128H30.99l.335 6.164c.015.264.184.47.386.47z" fill="#000"/></svg><svg fill="none" viewBox="0 0 38 26" id="graphic-tool-3" xmlns="http://www.w3.org/2000/svg"><path fill-rule="evenodd" clip-rule="evenodd" d="M23.67 19.13h13.514c.45 0 .816.397.816.886V25.396c0 .334-.25.604-.557.604-.307 0-.556-.27-.556-.604v-1.963H30.91c-.307 0-.556-.27-.556-.604 0-.334.249-.605.556-.605h5.977V20.338H23.67v1.886h4.974c.308 0 .557.271.557.605 0 .334-.25.604-.557.604H23.67v1.107c0 .609-.458 1.104-1.02 1.104H11.835C5.309 25.644 0 19.892 0 12.822 0 5.752 5.31 0 11.835 0c5.213 0 9.649 3.67 11.223 8.751h2.012c.485 0 .879.385.98.957l.762 4.297c.065.362-.001.697-.187.942a.936.936 0 01-.767.365H23.67v3.818zm2.026-5.027l-.735-4.143h-1.589c.195.92.298 1.879.298 2.862v1.281h2.026zm-24.568-.676h2.144c.15 0 .355-.015.526-.202.184-.204.179-.446.176-.575a2.32 2.32 0 010-.143 8.957 8.957 0 011.374-4.506.638.638 0 00-.142-.84.53.53 0 00-.774.154 10.216 10.216 0 00-1.56 4.903H1.128c.281-5.924 4.68-10.69 10.15-10.994v1.89c-1.753.115-3.417.777-4.826 1.921a.64.64 0 00-.113.846.526.526 0 00.78.122c1.286-1.044 2.815-1.63 4.423-1.693.053-.002.095-.001.128 0h.005c.122.002.344.006.53-.193.19-.204.188-.446.187-.622v-2.27c5.654.314 10.165 5.396 10.165 11.597v8.514H12.261c-.543 0-.984.479-.984 1.067v2.017c-5.47-.305-9.869-5.07-10.15-10.994zm11.264 11.009h10.165v-1.891H12.392v1.89z" fill="#000"/><path fill-rule="evenodd" clip-rule="evenodd" d="M17.198 19.933h-5.322c-3.493 0-6.334-2.916-6.334-6.5s2.841-6.5 6.334-6.5c3.492 0 6.332 2.916 6.332 6.5v5.46c0 .574-.453 1.04-1.01 1.04zm-.115-6.5c0-2.946-2.336-5.342-5.207-5.342-2.872 0-5.209 2.396-5.209 5.341 0 2.947 2.337 5.344 5.209 5.344h5.207v-5.344z" fill="#000"/><path fill-rule="evenodd" clip-rule="evenodd" d="M13.899 15.6H9.852c-.63 0-1.143-.489-1.143-1.09v-2.156c0-.6.512-1.087 1.143-1.087h4.047c.63 0 1.143.488 1.143 1.087v2.156c0 .601-.513 1.09-1.143 1.09zm-.129-3.123H9.98v1.912h3.79v-1.912z" fill="#000"/></svg><svg fill="none" viewBox="0 0 37 29" id="icon_menu" xmlns="http://www.w3.org/2000/svg"><path d="M35.458 26H1.542C.69 26 0 26.672 0 27.5S.69 29 1.542 29h33.916C36.31 29 37 28.328 37 27.5s-.69-1.5-1.542-1.5zM35.5 0h-21a1.5 1.5 0 000 3h21a1.5 1.5 0 000-3zM35.458 9H1.542C.69 9 0 9.672 0 10.5S.69 12 1.542 12h33.916C36.31 12 37 11.328 37 10.5S36.31 9 35.458 9zM35.5 18h-21a1.5 1.5 0 000 3h21a1.5 1.5 0 000-3z" fill="#000"/></svg><svg fill="none" viewBox="0 0 14 15" id="instagram" xmlns="http://www.w3.org/2000/svg"><path d="M7 3.406C5 3.406 3.406 5.031 3.406 7 3.406 9 5 10.594 7 10.594A3.594 3.594 0 0010.594 7c0-1.969-1.625-3.594-3.594-3.594zm0 5.938A2.34 2.34 0 014.656 7c0-1.281 1.032-2.313 2.344-2.313A2.307 2.307 0 019.313 7C9.313 8.313 8.28 9.344 7 9.344zm4.563-6.063a.84.84 0 00-.844-.844.84.84 0 00-.844.844.84.84 0 00.844.844.84.84 0 00.844-.844zm2.374.844C13.876 3 13.626 2 12.813 1.187 12 .375 11 .125 9.874.063 8.719 0 5.25 0 4.094.063 2.969.126 2 .376 1.156 1.188.344 2 .094 3 .031 4.126-.03 5.281-.03 8.75.031 9.906.094 11.031.344 12 1.156 12.844c.844.812 1.813 1.062 2.938 1.125 1.156.062 4.625.062 5.781 0 1.125-.063 2.125-.313 2.938-1.125.812-.844 1.062-1.813 1.124-2.938.063-1.156.063-4.625 0-5.781zm-1.5 7c-.218.625-.718 1.094-1.312 1.344-.938.375-3.125.281-4.125.281-1.031 0-3.219.094-4.125-.281a2.37 2.37 0 01-1.344-1.344C1.156 10.219 1.25 8.031 1.25 7c0-1-.094-3.188.281-4.125a2.41 2.41 0 011.344-1.313c.906-.375 3.094-.28 4.125-.28 1 0 3.188-.095 4.125.28.594.22 1.063.72 1.313 1.313.374.938.28 3.125.28 4.125 0 1.031.095 3.219-.28 4.125z" fill="#707070"/></svg><svg fill="none" viewBox="0 0 16 16" id="pinterest" xmlns="http://www.w3.org/2000/svg"><path d="M15.5 8A7.749 7.749 0 007.75.25 7.749 7.749 0 000 8a7.714 7.714 0 004.906 7.219c-.062-.594-.125-1.531.032-2.219.156-.594.906-3.844.906-3.844S5.625 8.687 5.625 8c0-1.063.625-1.875 1.406-1.875.657 0 .969.5.969 1.094 0 .656-.438 1.656-.656 2.593-.157.75.406 1.376 1.156 1.376 1.375 0 2.438-1.438 2.438-3.532 0-1.875-1.344-3.156-3.22-3.156-2.218 0-3.5 1.656-3.5 3.344 0 .687.25 1.406.563 1.781.063.063.063.156.063.219-.063.25-.219.781-.219.875-.031.156-.125.187-.281.125-.969-.469-1.563-1.875-1.563-3.031 0-2.438 1.781-4.688 5.125-4.688 2.688 0 4.782 1.938 4.782 4.5 0 2.656-1.688 4.813-4.032 4.813-.781 0-1.531-.407-1.781-.907 0 0-.375 1.5-.469 1.844-.187.688-.656 1.531-.968 2.031.718.25 1.5.344 2.312.344A7.749 7.749 0 0015.5 8z" fill="#707070"/></svg><svg fill="none" viewBox="0 0 80 80" id="play-button" xmlns="http://www.w3.org/2000/svg"><path fill-rule="evenodd" clip-rule="evenodd" d="M40 80c22.091 0 40-17.909 40-40S62.091 0 40 0 0 17.909 0 40s17.909 40 40 40z" fill="#363838" fill-opacity=".4"/><g filter="url(#pfilter0_d_5_290)"><path fill-rule="evenodd" clip-rule="evenodd" d="M58.5 39.634a1 1 0 010 1.732L32.25 56.522a1 1 0 01-1.5-.867v-30.31a1 1 0 011.5-.866L58.5 39.633z" fill="#fff" fill-opacity=".93"/></g><defs><filter id="pfilter0_d_5_290" x="26.75" y="21.343" width="36.25" height="40.314" filterUnits="userSpaceOnUse" color-interpolation-filters="sRGB"><feFlood flood-opacity="0" result="BackgroundImageFix"/><feColorMatrix in="SourceAlpha" values="0 0 0 0 0 0 0 0 0 0 0 0 0 0 0 0 0 0 127 0" result="hardAlpha"/><feOffset dy="1"/><feGaussianBlur stdDeviation="2"/><feColorMatrix values="0 0 0 0 0 0 0 0 0 0 0 0 0 0 0 0 0 0 0.852218 0"/><feBlend in2="BackgroundImageFix" result="effect1_dropShadow_5_290"/><feBlend in="SourceGraphic" in2="effect1_dropShadow_5_290" result="shape"/></filter></defs></svg><svg fill="none" viewBox="0 0 17 17" id="search-icon" xmlns="http://www.w3.org/2000/svg"><path fill-rule="evenodd" clip-rule="evenodd" d="M11.958 10.957l4.834 4.834a.708.708 0 11-1.001 1.001l-4.835-4.834a6.697 6.697 0 01-4.227 1.5A6.737 6.737 0 010 6.73C0 3.02 3.019 0 6.73 0c3.71 0 6.728 3.019 6.728 6.73 0 1.6-.564 3.07-1.5 4.226zM1.417 6.729a5.318 5.318 0 005.312 5.313 5.318 5.318 0 005.312-5.313A5.318 5.318 0 006.73 1.417a5.318 5.318 0 00-5.312 5.312z" fill="#5A5A5A"/></svg><svg fill="none" viewBox="0 0 14 14" id="whatsapp" xmlns="http://www.w3.org/2000/svg"><path d="M11.875 2.063A6.826 6.826 0 006.969 0C3.156 0 .03 3.125.03 6.938c0 1.25.344 2.437.938 3.468L0 14l3.656-.938c1.031.532 2.156.844 3.313.844 3.843 0 7.031-3.125 7.031-6.937 0-1.875-.813-3.594-2.125-4.907zM6.969 12.719a5.78 5.78 0 01-2.938-.813l-.187-.125-2.188.594.594-2.125-.156-.219c-.563-.937-.875-2-.875-3.094 0-3.156 2.593-5.75 5.781-5.75 1.531 0 2.969.594 4.063 1.688 1.093 1.094 1.75 2.531 1.75 4.094 0 3.156-2.657 5.75-5.844 5.75zm3.187-4.313c-.187-.094-1.031-.5-1.187-.562-.156-.063-.281-.094-.406.093-.094.157-.438.563-.532.688-.125.094-.219.125-.375.031-1.031-.5-1.687-.906-2.375-2.062-.187-.313.188-.282.5-.938.063-.125.032-.218 0-.312-.031-.094-.406-.938-.531-1.282-.156-.343-.281-.312-.406-.312H4.53a.586.586 0 00-.468.219c-.157.187-.594.594-.594 1.437 0 .875.594 1.688.687 1.813.094.093 1.219 1.843 2.969 2.593 1.094.5 1.531.532 2.094.438.312-.031 1-.406 1.156-.813.156-.406.156-.75.094-.812-.031-.094-.156-.125-.313-.219z" fill="#707070"/></svg><svg fill="none" viewBox="0 0 18 12" id="youtube" xmlns="http://www.w3.org/2000/svg"><path d="M17.156 1.906a2.126 2.126 0 00-1.5-1.531C14.312 0 9 0 9 0S3.656 0 2.312.375a2.126 2.126 0 00-1.5 1.531C.438 3.22.438 6.031.438 6.031s0 2.782.376 4.125c.187.75.78 1.313 1.5 1.5C3.655 12 9 12 9 12s5.313 0 6.656-.344a2.084 2.084 0 001.5-1.5c.375-1.344.375-4.125.375-4.125s0-2.812-.375-4.125zM7.25 8.563V3.5l4.438 2.531L7.25 8.563z" fill="#707070"/></svg></svg>